<svg width="75" height="75" viewBox="0 0 75 75" fill="none" xmlns="http://www.w3.org/2000/svg">
<g clip-path="url(#clip0_32_29)">
<path d="M50.5253 66.0768C50.1366 65.8404 49.798 65.5233 49.5289 65.1392C49.4046 64.962 49.2995 64.7747 49.2126 64.581H5.05119V21.0532H64.9939V49.4754C66.2736 49.5909 67.3473 50.4314 67.7981 51.5823C68.1973 51.3635 68.6422 51.2283 69.1098 51.1871C69.4261 51.1596 69.7402 51.1792 70.0449 51.2394V10.2094C70.0449 7.88835 68.1569 6 65.836 6H4.20926C1.88835 6 0 7.88835 0 10.2094V65.4232C0 67.7442 1.88835 69.6324 4.20926 69.6324H50.1416C49.7832 68.9066 49.6982 68.0872 49.9091 67.2988C50.0307 66.8454 50.2411 66.4317 50.5253 66.0768ZM60.3715 13.0685C60.3715 12.2101 61.0674 11.5141 61.9257 11.5141H63.4799C64.3384 11.5141 65.0341 12.2099 65.0341 13.0685V14.83C65.0341 15.6884 64.3383 16.3842 63.4799 16.3842H61.9257C61.0672 16.3842 60.3715 15.6884 60.3715 14.83V13.0685ZM53.1445 13.0685C53.1445 12.2101 53.8403 11.5141 54.6986 11.5141H56.253C57.1115 11.5141 57.8072 12.2099 57.8072 13.0685V14.83C57.8072 15.6884 57.1114 16.3842 56.253 16.3842H54.6986C53.8403 16.3842 53.1445 15.6884 53.1445 14.83V13.0685ZM45.9172 13.0685C45.9172 12.2101 46.6132 11.5141 47.4714 11.5141H49.0256C49.8841 11.5141 50.5799 12.2099 50.5799 13.0685V14.83C50.5799 15.6884 49.8841 16.3842 49.0256 16.3842H47.4714C46.6132 16.3842 45.9172 15.6884 45.9172 14.83V13.0685Z" fill="#8739FA"/>
<path d="M74.99 63.1126L74.523 60.464C74.4599 60.1073 74.12 59.8691 73.763 59.9319L71.4076 60.347C71.1249 59.6835 70.7638 59.062 70.3351 58.4931L71.8736 56.6592C71.9854 56.5264 72.0399 56.354 72.0249 56.1806C72.0095 56.0072 71.9259 55.8471 71.7927 55.7352L69.7327 54.0063C69.5995 53.8945 69.4268 53.8402 69.2535 53.8554C69.0801 53.8706 68.9201 53.954 68.8083 54.0872L67.2712 55.9197C66.6402 55.5982 65.9653 55.3503 65.2582 55.1867V52.7949C65.2582 52.4327 64.9644 52.1387 64.6022 52.1387H61.9125C61.5505 52.1387 61.2565 52.4327 61.2565 52.7949V55.1867C60.5491 55.3501 59.8748 55.5982 59.2435 55.9197L57.7061 54.0874C57.4732 53.8098 57.0596 53.7738 56.7818 54.0065L54.7217 55.7352C54.5884 55.8471 54.505 56.0072 54.4897 56.1806C54.4747 56.354 54.529 56.5265 54.6408 56.6598L56.1794 58.4933C55.7515 59.062 55.3896 59.6838 55.1069 60.3472L52.7515 59.9319C52.3954 59.8692 52.0548 60.1073 51.9916 60.464L51.5247 63.1126C51.4945 63.2839 51.5337 63.46 51.6331 63.6027C51.7333 63.7454 51.885 63.8424 52.0564 63.8726L54.4136 64.288C54.452 65.0183 54.5792 65.7248 54.7838 66.3976L52.7121 67.5934C52.5613 67.68 52.4515 67.8236 52.4063 67.9915C52.3613 68.1595 52.385 68.3385 52.4718 68.4892L53.8165 70.8184C53.9032 70.9691 54.0467 71.0789 54.2146 71.1239C54.2705 71.1389 54.3275 71.1463 54.3845 71.1463C54.4986 71.1463 54.6117 71.1166 54.7124 71.0584L56.7858 69.8612C57.2733 70.3836 57.8238 70.8466 58.4253 71.2381L57.6066 73.4872C57.5473 73.6508 57.555 73.8312 57.6286 73.9889C57.7022 74.1466 57.8352 74.2686 57.9986 74.3279L60.5255 75.2475C60.598 75.2739 60.6741 75.2875 60.75 75.2875C60.8446 75.2875 60.9398 75.2669 61.0275 75.2259C61.1852 75.1525 61.3069 75.0192 61.3663 74.8556L62.1849 72.6065C62.5358 72.649 62.893 72.671 63.2554 72.671C63.6178 72.671 63.975 72.6487 64.3259 72.6065L65.1446 74.8556C65.2039 75.0192 65.3261 75.1525 65.4834 75.2259C65.571 75.2668 65.6658 75.2875 65.761 75.2875C65.8367 75.2875 65.9128 75.2743 65.9853 75.2475L68.5125 74.3279C68.6756 74.2686 68.8088 74.1462 68.8822 73.9889C68.9558 73.8312 68.9636 73.6508 68.9042 73.4872L68.0855 71.2384C68.6865 70.8469 69.2369 70.3836 69.725 69.8616L71.7984 71.0587C71.899 71.1166 72.0122 71.1466 72.1263 71.1466C72.1831 71.1466 72.2406 71.1389 72.2962 71.1243C72.4642 71.0793 72.6075 70.9691 72.6943 70.8187L74.0389 68.4892C74.1257 68.3388 74.1495 68.1595 74.1045 67.9915C74.0593 67.8239 73.9495 67.6803 73.7987 67.5934L71.7273 66.398C71.932 65.725 72.0588 65.0185 72.0972 64.2884L74.4544 63.8727C74.6258 63.8426 74.778 63.7456 74.8777 63.6029C74.9811 63.46 75.0202 63.2839 74.99 63.1126ZM63.2575 67.3215C61.2652 67.3215 59.6498 65.7061 59.6498 63.7136C59.6498 61.7211 61.2654 60.1059 63.2575 60.1059C65.25 60.1059 66.8655 61.7211 66.8655 63.7136C66.8655 65.7061 65.25 67.3215 63.2575 67.3215Z" fill="#8739FA"/>
<path d="M29.4146 45.1817C29.4146 44.333 28.9172 43.5534 28.1473 43.1958L21.1006 39.9217L28.1475 36.6473C28.9172 36.2893 29.4146 35.5099 29.4146 34.6616V34.6046C29.4146 33.8527 29.0362 33.1624 28.4029 32.7589C28.0525 32.5352 27.6444 32.4167 27.223 32.4167C26.9055 32.4167 26.5867 32.4866 26.3015 32.6191L15.0357 37.858C14.2661 38.2159 13.769 38.9953 13.769 39.8435V40.0001C13.769 40.8472 14.2659 41.6261 15.0359 41.9858L26.3027 47.2253C26.594 47.3601 26.9042 47.4285 27.2246 47.4285C27.6422 47.4285 28.0491 47.3099 28.4029 47.0849C29.0365 46.6798 29.4148 45.99 29.4148 45.239L29.4146 45.1817Z" fill="#8739FA"/>
<path d="M40.5302 27.0785C40.1193 26.5159 39.4583 26.1802 38.7619 26.1802H38.7058C37.7496 26.1802 36.9112 26.7919 36.6199 27.7011L29.1973 50.6999C28.986 51.364 29.105 52.0953 29.5154 52.6578C29.9263 53.22 30.5873 53.5559 31.2837 53.5559H31.34C32.2958 53.5559 33.1337 52.944 33.4246 52.035L40.8463 29.038C41.0596 28.3745 40.9414 27.642 40.5302 27.0785Z" fill="#8739FA"/>
<path d="M55.0092 37.8579L43.7433 32.619C43.4589 32.4868 43.1407 32.417 42.8231 32.417C42.402 32.417 41.9937 32.535 41.6435 32.7585C41.0091 33.1627 40.6306 33.8528 40.6306 34.6047V34.6616C40.6306 35.5093 41.1277 36.2889 41.8981 36.6482L48.9447 39.922L41.898 43.1959C41.128 43.5535 40.6306 44.3331 40.6306 45.1818V45.2391C40.6306 45.9901 41.0091 46.6797 41.6431 47.0851C41.9957 47.3098 42.4029 47.4286 42.821 47.4286C43.141 47.4286 43.4509 47.3602 43.7442 47.2248L55.0107 41.9854C55.7799 41.6265 56.2766 40.8475 56.2766 40.0004V39.8438C56.276 38.9954 55.779 38.216 55.0092 37.8579Z" fill="#8739FA"/>
</g>
<defs>
<clipPath id="clip0_32_29">
<rect width="75" height="75" fill="white"/>
</clipPath>
</defs>
</svg>
