<svg width="75" height="75" viewBox="0 0 75 75" fill="none" xmlns="http://www.w3.org/2000/svg">
<path d="M68.7538 4.68213H6.2468C2.80221 4.68213 0 7.48452 0 10.9291V51.6679C0 55.1125 2.80221 57.9149 6.2468 57.9149H26.3867L22.5641 66.344C22.1694 67.2146 22.2437 68.226 22.7615 69.0292C23.2794 69.8327 24.1697 70.3179 25.1254 70.3179H49.8748C49.8759 70.3179 49.8774 70.3179 49.8786 70.3179C51.432 70.3179 52.6911 69.0589 52.6911 67.5054C52.6911 67.038 52.5776 66.5964 52.375 66.2086L48.6133 57.9149H68.7532C72.1978 57.9149 75 55.1125 75 51.6679V10.9291C75.0006 7.48452 72.1984 4.68213 68.7538 4.68213ZM69.3755 51.6681C69.3755 52.011 69.0965 52.2899 68.7538 52.2899H6.2468C5.90404 52.2899 5.62504 52.011 5.62504 51.6681V10.9291C5.62504 10.5862 5.90404 10.3072 6.2468 10.3072H68.7536C69.0963 10.3072 69.3753 10.5862 69.3753 10.9291L69.3755 51.6681Z" fill="#8739FA"/>
<path d="M46.1624 18.0816C45.9643 17.8836 45.6148 17.9128 45.3813 18.1461L42.3301 21.1969C42.0963 21.4307 42.0676 21.7812 42.2649 21.979L46.5967 26.3108C46.6951 26.4094 46.8331 26.4516 46.9741 26.4398C47.1159 26.428 47.261 26.3624 47.3786 26.2452L50.4294 23.1942C50.6627 22.9607 50.6919 22.6109 50.4937 22.413L46.1624 18.0816Z" fill="#8739FA"/>
<path d="M27.4382 37.0468C27.3099 36.9186 27.1104 36.8815 26.9149 36.9488C26.7195 37.0161 26.5582 37.1786 26.4917 37.3746L24.407 43.5497C24.3408 43.7442 24.3793 43.9414 24.5068 44.0687C24.6028 44.1657 24.7393 44.2111 24.8839 44.1987C24.9304 44.1947 24.9782 44.185 25.0256 44.1687L31.2008 42.0837C31.3965 42.0173 31.5593 41.8559 31.6264 41.6607C31.6943 41.4655 31.6568 41.2656 31.5287 41.1372L27.4382 37.0468Z" fill="#8739FA"/>
<path d="M43.0323 34.1681C43.3044 34.044 43.5029 33.7997 43.5684 33.5083C43.634 33.2167 43.5596 32.9111 43.3676 32.6824C43.0076 32.2543 42.6309 31.8191 42.2431 31.3809L45.6328 27.9914C45.7445 27.8795 45.815 27.7336 45.8265 27.587C45.8386 27.4409 45.7918 27.3048 45.6973 27.2101L41.3652 22.8787C41.1672 22.6803 40.8177 22.7093 40.5841 22.9432L37.2785 26.2494C35.0614 24.1477 32.8349 22.2727 30.8725 20.8621C29.4908 19.8691 26.9631 18.1997 25.5559 18.1784C25.299 18.1739 25.0505 18.2744 24.8681 18.4557C24.6851 18.6368 24.5833 18.8841 24.5854 19.1414C24.5927 20.1003 25.4344 21.8303 26.9552 24.0121C28.4027 26.0887 30.3913 28.475 32.6601 30.8677L28.3476 35.1806C28.1136 35.4144 28.0845 35.7639 28.2827 35.9618L32.6145 40.2932C32.713 40.3928 32.8497 40.4348 32.9916 40.4228C33.1326 40.411 33.279 40.3452 33.3957 40.2287L37.7918 35.8324C38.1756 36.172 38.5563 36.502 38.9317 36.8201C39.1058 36.9677 39.3248 37.0468 39.5497 37.0468C39.6005 37.0468 39.6515 37.0427 39.7025 37.0346C39.9783 36.9898 40.2209 36.8267 40.366 36.5878C40.6225 36.1663 40.9567 35.748 41.36 35.3454C41.8655 34.839 42.4286 34.4428 43.0323 34.1681Z" fill="#8739FA"/>
<path d="M45.4301 34.968C44.3167 34.968 43.2539 35.4426 42.3558 36.3405C41.2781 37.4183 40.8076 38.5487 40.9951 39.6102C41.1813 40.6609 42.0162 41.6028 43.2864 42.1923C44.379 42.6998 45.3748 42.8571 46.2528 42.9961C47.1776 43.142 48.05 43.2803 48.8265 43.807C48.9872 43.9167 49.175 43.9724 49.3635 43.9724C49.4959 43.9724 49.6288 43.945 49.7533 43.8891C50.0557 43.7543 50.2671 43.472 50.3115 43.1435C50.6443 40.6607 50.1681 38.431 48.9705 36.8667C48.0463 35.6601 46.7559 34.968 45.4301 34.968Z" fill="#8739FA"/>
</svg>
