<svg xmlns="http://www.w3.org/2000/svg" viewBox="0 0 1212.89 1236.61"><defs><style>.cls-1{fill:#8739fa;}.cls-2{fill:#fff;}</style></defs><g id="Layer_2" data-name="Layer 2"><g id="Layer_1-2" data-name="Layer 1"><g id="Layer_2-2" data-name="Layer 2"><g id="Layer_1-2-2" data-name="Layer 1-2"><rect class="cls-1" x="125.49" y="149.21" width="961.91" height="961.91" rx="178" transform="translate(-267.97 613.39) rotate(-45)"/><path class="cls-2" d="M596.77,949.5c-70.5,0-148.5-25.5-190.5-78l-82.5,75c70.5,78,180,120,282,120,154.5,0,303-82.5,303-262.5V0h-120V639c-64.5,25.5-127.5,37.5-189,37.5-90,0-181.5-55.5-181.5-148.5V0h-123V525c0,174,153,267,307.5,267,64.5-1.5,133.5-12,186-48v60C788.77,912,692.77,949.5,596.77,949.5Z"/></g></g></g></g></svg>